<svg width="1167" height="720" xmlns="http://www.w3.org/2000/svg" xmlns:xlink="http://www.w3.org/1999/xlink" overflow="hidden"><g><rect x="0" y="0" width="1167" height="719.794" fill="#FFFFFF"/><g><g><g><path d="M550.125 168.094C532.427 168.094 515.656 177.645 504.129 194.282 503.231 195.6 500.747 198.656 497.023 198.656 492.629 198.656 489 195.122 489 190.634L489 106.969C489 81.6878 468.466 61.125 443.156 61.125L359.453 61.125C338.193 60.2654 320.906 78.4215 320.906 99.7102 320.906 112.308 327.457 124.38 338.441 131.992 343.351 135.335 351.469 142.498 351.469 152.813 351.469 169.374 330.476 183.375 305.625 183.375 280.774 183.375 259.781 169.335 259.781 152.813 259.781 142.498 267.944 135.325 272.837 131.934 283.754 124.351 290.344 112.222 290.344 99.7102 290.344 78.4597 273.047 61.1632 251.797 61.1632L168.094 61.125C142.784 61.125 122.25 81.6878 122.25 106.969L122.25 190.672C122.25 195.122 118.716 198.656 114.227 198.656 110.511 198.656 107.99 195.597 107.08 194.284 95.6033 177.645 78.8226 168.094 61.125 168.094 27.4107 168.094 0 202.381 0 244.5 0 286.619 27.4107 320.906 61.125 320.906 78.8417 320.906 95.5938 312.215 107.102 294.718 108.019 293.4 110.503 290.344 114.227 290.344 118.716 290.344 122.25 293.878 122.25 298.366L122.25 382.031C122.25 407.341 142.784 427.875 168.094 427.875L251.797 427.875C273.057 427.875 290.344 410.588 290.344 389.29 290.344 376.692 283.793 364.62 272.809 357.008 267.899 353.665 259.781 346.502 259.781 336.188 259.781 319.626 280.774 305.625 305.625 305.625 330.476 305.625 351.469 319.626 351.469 336.188 351.469 346.502 343.306 353.675 338.413 357.066 327.496 364.649 320.906 376.778 320.906 389.29 320.906 410.588 338.193 427.875 359.491 427.875L443.156 427.875C468.437 427.875 489 407.312 489 382.031L489 298.366C489 293.878 492.629 290.344 497.023 290.344 500.753 290.344 503.276 293.403 504.17 294.686 515.647 311.355 532.456 320.906 550.125 320.906 583.839 320.906 611.25 286.629 611.25 244.5 611.25 202.372 583.839 168.094 550.125 168.094ZM550.125 290.344C539.81 290.344 532.638 282.181 529.247 277.288 521.664 266.371 509.534 259.781 497.023 259.781 475.724 259.781 458.438 277.068 458.438 298.366L458.438 382.031C458.438 390.463 451.588 397.313 443.156 397.313L359.453 397.313C355.098 397.313 351.469 393.779 351.469 389.29 351.469 385.559 354.528 383.037 355.812 382.142 371.621 370.666 382.031 353.856 382.031 336.188 382.031 302.473 347.754 275.063 305.625 275.063 263.497 275.063 229.219 302.473 229.219 336.188 229.219 353.904 237.91 370.656 255.407 382.165 256.725 383.082 259.781 385.565 259.781 389.29 259.781 393.779 256.247 397.313 251.759 397.313L168.094 397.313C159.689 397.313 152.813 390.436 152.813 382.031L152.813 298.366C152.813 277.068 135.526 259.781 114.227 259.781 101.63 259.781 89.5577 266.332 81.9457 277.316 78.6125 282.226 71.4398 290.344 61.125 290.344 44.5639 290.344 30.5625 269.332 30.5625 244.5 30.5625 219.668 44.5639 198.656 61.125 198.656 71.4398 198.656 78.6125 206.819 81.9839 211.684 89.5863 222.629 101.62 229.219 114.227 229.219 135.526 229.219 152.813 211.932 152.813 190.634L152.813 106.969C152.813 98.5641 159.689 91.6875 168.094 91.6875L251.797 91.6875C256.247 91.6875 259.781 95.2691 259.781 99.7102 259.781 103.441 256.722 105.963 255.439 106.858 237.91 118.334 229.219 135.144 229.219 152.813 229.219 186.527 263.497 213.938 305.625 213.938 347.754 213.938 382.031 186.527 382.031 152.813 382.031 135.096 372.48 118.344 355.843 106.835 354.525 105.918 351.469 103.435 351.469 99.7102 351.469 95.2691 355.098 91.6875 359.491 91.6875L443.156 91.6875C451.561 91.6875 458.438 98.5641 458.438 106.969L458.438 190.672C458.438 211.932 475.724 229.219 497.023 229.219 509.63 229.219 521.702 222.668 529.304 211.684 532.647 206.774 539.81 198.656 550.125 198.656 566.686 198.656 580.688 219.649 580.688 244.5 580.688 269.351 566.648 290.344 550.125 290.344Z" fill="#8A8A8A" transform="matrix(7.11247e-17 1.16122 -1 6.12148e-17 508 4.99853)"/></g></g></g><g><g><g><path d="M550.125 168.094C532.427 168.094 515.656 177.645 504.129 194.282 503.231 195.6 500.747 198.656 497.023 198.656 492.629 198.656 489 195.122 489 190.634L489 106.969C489 81.6878 468.466 61.125 443.156 61.125L359.453 61.125C338.193 60.2654 320.906 78.4215 320.906 99.7102 320.906 112.308 327.457 124.38 338.441 131.992 343.351 135.335 351.469 142.498 351.469 152.813 351.469 169.374 330.476 183.375 305.625 183.375 280.774 183.375 259.781 169.335 259.781 152.813 259.781 142.498 267.944 135.325 272.837 131.934 283.754 124.351 290.344 112.222 290.344 99.7102 290.344 78.4597 273.047 61.1632 251.797 61.1632L168.094 61.125C142.784 61.125 122.25 81.6878 122.25 106.969L122.25 190.672C122.25 195.122 118.716 198.656 114.227 198.656 110.511 198.656 107.99 195.597 107.08 194.284 95.6033 177.645 78.8226 168.094 61.125 168.094 27.4107 168.094 0 202.381 0 244.5 0 286.619 27.4107 320.906 61.125 320.906 78.8417 320.906 95.5938 312.215 107.102 294.718 108.019 293.4 110.503 290.344 114.227 290.344 118.716 290.344 122.25 293.878 122.25 298.366L122.25 382.031C122.25 407.341 142.784 427.875 168.094 427.875L251.797 427.875C273.057 427.875 290.344 410.588 290.344 389.29 290.344 376.692 283.793 364.62 272.809 357.008 267.899 353.665 259.781 346.502 259.781 336.188 259.781 319.626 280.774 305.625 305.625 305.625 330.476 305.625 351.469 319.626 351.469 336.188 351.469 346.502 343.306 353.675 338.413 357.066 327.496 364.649 320.906 376.778 320.906 389.29 320.906 410.588 338.193 427.875 359.491 427.875L443.156 427.875C468.437 427.875 489 407.312 489 382.031L489 298.366C489 293.878 492.629 290.344 497.023 290.344 500.753 290.344 503.276 293.403 504.17 294.686 515.647 311.355 532.456 320.906 550.125 320.906 583.839 320.906 611.25 286.629 611.25 244.5 611.25 202.372 583.839 168.094 550.125 168.094ZM550.125 290.344C539.81 290.344 532.638 282.181 529.247 277.288 521.664 266.371 509.534 259.781 497.023 259.781 475.724 259.781 458.438 277.068 458.438 298.366L458.438 382.031C458.438 390.463 451.588 397.313 443.156 397.313L359.453 397.313C355.098 397.313 351.469 393.779 351.469 389.29 351.469 385.559 354.528 383.037 355.812 382.142 371.621 370.666 382.031 353.856 382.031 336.188 382.031 302.473 347.754 275.063 305.625 275.063 263.497 275.063 229.219 302.473 229.219 336.188 229.219 353.904 237.91 370.656 255.407 382.165 256.725 383.082 259.781 385.565 259.781 389.29 259.781 393.779 256.247 397.313 251.759 397.313L168.094 397.313C159.689 397.313 152.813 390.436 152.813 382.031L152.813 298.366C152.813 277.068 135.526 259.781 114.227 259.781 101.63 259.781 89.5577 266.332 81.9457 277.316 78.6125 282.226 71.4398 290.344 61.125 290.344 44.5639 290.344 30.5625 269.332 30.5625 244.5 30.5625 219.668 44.5639 198.656 61.125 198.656 71.4398 198.656 78.6125 206.819 81.9839 211.684 89.5863 222.629 101.62 229.219 114.227 229.219 135.526 229.219 152.813 211.932 152.813 190.634L152.813 106.969C152.813 98.5641 159.689 91.6875 168.094 91.6875L251.797 91.6875C256.247 91.6875 259.781 95.2691 259.781 99.7102 259.781 103.441 256.722 105.963 255.439 106.858 237.91 118.334 229.219 135.144 229.219 152.813 229.219 186.527 263.497 213.938 305.625 213.938 347.754 213.938 382.031 186.527 382.031 152.813 382.031 135.096 372.48 118.344 355.843 106.835 354.525 105.918 351.469 103.435 351.469 99.7102 351.469 95.2691 355.098 91.6875 359.491 91.6875L443.156 91.6875C451.561 91.6875 458.438 98.5641 458.438 106.969L458.438 190.672C458.438 211.932 475.724 229.219 497.023 229.219 509.63 229.219 521.702 222.668 529.304 211.684 532.647 206.774 539.81 198.656 550.125 198.656 566.686 198.656 580.688 219.649 580.688 244.5 580.688 269.351 566.648 290.344 550.125 290.344Z" fill="#8A8A8A" transform="matrix(7.11247e-17 1.16122 -1 6.12148e-17 1148 4.99853)"/></g></g></g><path d="M455.475 182.396C447.651 182.396 441.25 190.362 441.25 200.098L441.25 297.015C441.25 321.687 425.158 341.712 405.332 341.712 393.596 341.712 382.394 334.078 375.317 321.4 372.179 315.765 365.502 306.309 355.9 306.309 340.484 306.309 327.45 330.649 327.45 359.414 327.45 388.18 340.484 412.52 355.9 412.52 365.502 412.52 372.179 403.116 375.282 397.429 382.367 384.705 393.605 377.116 405.332 377.116 425.158 377.116 441.25 397.141 441.25 421.813L441.25 518.731C441.25 528.467 447.651 536.433 455.475 536.433L533.357 536.433C537.536 536.433 540.825 532.339 540.825 527.14 540.825 522.825 537.98 519.948 536.753 518.886 520.465 505.554 512.375 486.149 512.375 465.626 512.375 426.571 544.284 394.818 583.5 394.818 622.716 394.818 654.625 426.571 654.625 465.626 654.625 486.093 644.934 505.565 630.218 518.859 629.023 519.896 626.175 522.818 626.175 527.14 626.175 532.339 629.553 536.433 633.608 536.433L711.525 536.433C719.374 536.433 725.75 528.498 725.75 518.731L725.75 421.813C725.75 397.141 741.842 377.116 761.668 377.116 773.315 377.116 784.606 384.75 791.665 397.396 794.821 403.064 801.498 412.52 811.1 412.52 826.481 412.52 839.55 388.202 839.55 359.414 839.55 330.627 826.516 306.309 811.1 306.309 801.498 306.309 794.83 315.713 791.719 321.4 784.641 334.124 773.404 341.712 761.668 341.712 741.842 341.712 725.75 321.687 725.75 297.059L725.75 200.098C725.75 190.362 719.349 182.396 711.525 182.396L633.643 182.396C629.553 182.396 626.175 186.544 626.175 191.689 626.175 196.004 629.02 198.88 630.247 199.943 645.734 213.275 654.625 232.68 654.625 253.203 654.625 292.258 622.716 324.011 583.5 324.011 544.284 324.011 512.375 292.258 512.375 253.203 512.375 232.735 520.465 213.263 536.782 199.969 537.977 198.933 540.825 196.011 540.825 191.689 540.825 186.544 537.536 182.396 533.392 182.396ZM455.475 146.992 533.392 147.036C553.174 147.036 569.275 167.073 569.275 191.689 569.275 206.183 563.141 220.234 552.978 229.018 548.424 232.946 540.825 241.254 540.825 253.203 540.825 272.343 560.367 288.607 583.5 288.607 606.633 288.607 626.175 272.388 626.175 253.203 626.175 241.254 618.618 232.957 614.048 229.084 603.823 220.267 597.725 206.282 597.725 191.689 597.725 167.028 613.817 145.996 633.608 146.992L711.525 146.992C735.085 146.992 754.2 170.812 754.2 200.098L754.2 297.015C754.2 302.215 757.578 306.309 761.668 306.309 765.135 306.309 767.447 302.768 768.283 301.242 779.014 281.969 794.626 270.905 811.1 270.905 842.484 270.905 868 310.612 868 359.414 868 408.216 842.484 447.924 811.1 447.924 794.652 447.924 779.005 436.86 768.323 417.551 767.487 416.064 765.14 412.52 761.668 412.52 757.578 412.52 754.2 416.614 754.2 421.813L754.2 518.731C754.2 548.017 735.058 571.837 711.525 571.837L633.643 571.837C613.817 571.837 597.725 551.812 597.725 527.14 597.725 512.646 603.859 498.595 614.022 489.811 618.576 485.883 626.175 477.574 626.175 465.626 626.175 446.441 606.633 430.222 583.5 430.222 560.367 430.222 540.825 446.441 540.825 465.626 540.825 477.574 548.382 485.872 552.952 489.744 563.177 498.562 569.275 512.547 569.275 527.14 569.275 551.812 553.183 571.837 533.392 571.837L455.475 571.837C431.915 571.837 412.8 548.05 412.8 518.731L412.8 421.813C412.8 416.614 409.51 412.52 405.332 412.52 401.865 412.52 399.553 416.06 398.7 417.587 387.986 437.856 372.392 447.924 355.9 447.924 324.516 447.924 299 408.205 299 359.414 299 310.624 324.516 270.905 355.9 270.905 372.374 270.905 387.995 281.969 398.678 301.244 399.525 302.765 401.873 306.309 405.332 306.309 409.51 306.309 412.8 302.215 412.8 297.059L412.8 200.098C412.8 170.812 431.915 146.992 455.475 146.992Z" fill="#1296DB" fill-rule="evenodd"/><path d="M426.872 266.634 428.696 234.917 429.912 194.138 437.816 173.749 460.312 170.728 500.44 171.483 539.352 166.952 548.472 178.28 544.824 205.466 538.136 223.59 530.232 256.817 534.488 279.472 562.456 292.31 600.76 298.351 618.392 292.31 637.24 267.389 632.984 240.203 626.904 219.814 615.96 188.097 628.12 167.708 677.368 167.708 722.36 169.973 730.264 179.79 735.128 208.486 740.6 262.858C740.803 269.907 741.005 276.955 741.208 284.003L747.288 305.148 760.056 314.965 780.12 317.985 795.32 301.372 838.488 295.331 845.176 330.823 847 363.295 843.96 398.033 829.368 425.974 795.928 423.709 778.296 410.871 752.152 387.461 743.64 415.402C743.437 424.464 743.235 433.526 743.032 442.588L737.56 466.753 734.52 527.922 719.32 550.577 627.512 549.066 612.92 513.573 627.512 499.98 639.064 450.139 629.336 429.75 608.056 421.443 561.24 416.912 545.432 428.995 527.192 472.039 547.864 509.798 552.12 533.208 532.664 552.842 485.24 552.087 440.856 545.29 428.088 527.166 422.616 465.998 425.656 428.995 418.36 404.074 404.984 396.523 385.528 405.585 370.328 423.709 335.672 418.422 321.08 393.502 315 351.968 320.472 323.272 339.32 296.841 358.168 293.065 375.192 297.596 393.432 317.985 413.496 321.761 425.656 298.351 426.872 266.634Z" fill="#1296DB" fill-rule="evenodd"/></g></svg>